<?xml version="1.0" encoding="UTF-8" standalone="no"?>
<!-- Created with Inkscape (http://www.inkscape.org/) -->

<svg
   xmlns:dc="http://purl.org/dc/elements/1.1/"
   xmlns:cc="http://creativecommons.org/ns#"
   xmlns:rdf="http://www.w3.org/1999/02/22-rdf-syntax-ns#"
   xmlns:svg="http://www.w3.org/2000/svg"
   xmlns="http://www.w3.org/2000/svg"
   version="1.1"
   width="506.12103"
   height="146.07774"
   id="svg2"
   xml:space="preserve"><metadata
     id="metadata8"><rdf:RDF><cc:Work
         rdf:about=""><dc:format>image/svg+xml</dc:format><dc:type
           rdf:resource="http://purl.org/dc/dcmitype/StillImage" /><dc:title></dc:title></cc:Work></rdf:RDF></metadata><defs
     id="defs6"><clipPath
       id="clipPath18"><path
         d="m 11.62,11.62 588.76,0 0,768.76 -588.76,0 0,-768.76 z"
         id="path20" /></clipPath></defs><g
     transform="matrix(1.25,0,0,-1.25,-108.14271,904.0715)"
     id="g10"><g
       id="g12" /><g
       transform="matrix(0.24,0,0,0.24,371.4569,667.34)"
       id="g58" /><g
       id="g3162"><g
         transform="matrix(0.24,0,0,0.24,111.88,708.86)"
         id="g22"><text
           transform="scale(1,-1)"
           id="text24"><tspan
             x="0 36.110001 58.299999 72.190002 86.080002 111.08 123.58 143.55499 168.55499 190.745 207.395 229.58501 249.56 263.45001 282.91 302.88501 322.345 347.345 386.23499 408.42499 428.39999 442.29001 464.48001 489.48001 503.37 523.34497 559.45502 573.34497 587.23499 612.23499 637.23499 662.23499 676.125 696.09998 718.28998 738.26501 777.15503 799.34497 821.53497 846.53497 860.42499 885.42499 910.42499 922.92499 942.90002 973.46503 998.46503 1012.355 1031.8149 1051.79 1065.6801 1087.87 1112.87 1126.76 1146.735 1166.1949 1191.1949 1216.1949 1241.1949 1255.085 1280.085 1300.0601 1319.52 1344.52 1369.52 1405.63 1425.605 1461.715 1486.715 1508.905 1522.795 1542.77 1564.96"
             y="0"
             id="tspan26"
             style="font-size:50px;font-variant:normal;font-weight:normal;writing-mode:lr-tb;fill:#000000;fill-opacity:1;fill-rule:nonzero;stroke:none;font-family:Times New Roman;-inkscape-font-specification:Times-Roman">Hello, here is some text without a meaning. This text should show what a </tspan></text>
</g><g
         transform="matrix(0.24,0,0,0.24,90.57996,694.94)"
         id="g28"><text
           transform="scale(1,-1)"
           id="text30"><tspan
             x="0 25 41.650002 55.540001 80.540001 94.43 116.62 141.62 163.575 177.465 199.655 224.655 238.545 260.5 296.60999 310.5 324.39001 338.28 360.23499 374.125 399.125 424.125 449.125 471.07999 484.97 498.85999 523.85999 546.04999 568.005 590.19501 604.08502 626.03998 639.92999 664.92999 678.82001 698.28003 720.23499 745.23499 759.125 781.315 803.505 825.69501 838.19501 860.15002 876.79999 893.47498 915.42999 940.42999 965.42999 990.42999 1012.385 1029.035 1051.225 1073.415 1098.415 1120.37 1134.26 1159.26 1173.15 1192.61 1214.5649 1228.455 1250.645 1275.645 1289.535 1302.035 1323.99 1348.99 1373.99 1398.99 1420.9449 1457.0551 1470.9449 1484.835 1498.725 1520.6801 1545.6801 1567.87 1581.76 1603.715 1628.715 1653.715"
             y="0"
             id="tspan32"
             style="font-size:50px;font-variant:normal;font-weight:normal;writing-mode:lr-tb;fill:#000000;fill-opacity:1;fill-rule:nonzero;stroke:none;font-family:Times New Roman;-inkscape-font-specification:Times-Roman">printed text will look like at this place. If you read this text, you will get no </tspan></text>
</g><g
         transform="matrix(0.24,0,0,0.24,90.57996,681.26)"
         id="g34"><text
           transform="scale(1,-1)"
           id="text36"><tspan
             x="0 13.89 38.889999 55.564999 80.565002 97.214996 136.105 158.295 172.185 186.075 211.075 236.075 248.575 267.535 300.88501 323.07501 345.26501 359.155 373.04501 398.04501 420.16501 439.125 455.77499 475.23499 494.19501 508.08499 533.08502 555.27502 571.92499 594.11499 613.07501 638.07501 663.07501 682.03497 695.92499 720.92499 737.59998 762.59998 779.25 818.14001 840.33002 854.21997 868.10999 893.10999 918.10999 940.22998 959.19501 975.84497 995.30499 1014.27 1028.16 1053.16 1075.35 1092 1114.1899 1133.155 1155.345 1174.3101 1199.3101 1213.2 1229.875 1246.55 1268.74 1285.39 1307.58 1332.58 1354.77 1376.96 1395.925 1420.925 1443.115 1457.005 1493.115 1515.3051 1537.495 1562.495 1581.46 1595.35 1620.35 1634.24 1653.7"
             y="0"
             id="tspan38"
             style="font-size:50px;font-variant:normal;font-weight:normal;writing-mode:lr-tb;fill:#000000;fill-opacity:1;fill-rule:nonzero;stroke:none;font-family:Times New Roman;-inkscape-font-specification:Times-Roman">information. Really? Is there no information? Is there a difference between this </tspan></text>
</g><g
         transform="matrix(0.24,0,0,0.24,90.57996,667.34)"
         id="g40"><text
           transform="scale(1,-1)"
           id="text42"><tspan
             x="0 13.89 36.080002 61.080002 74.970001 92.125 114.315 139.315 164.315 181.47 200.92999 225.92999 264.82001 287.01001 304.16501 329.16501 354.16501 379.16501 398.625 420.815"
             y="0"
             id="tspan44"
             style="font-size:50px;font-variant:normal;font-weight:normal;writing-mode:lr-tb;fill:#000000;fill-opacity:1;fill-rule:nonzero;stroke:none;font-family:Times New Roman;-inkscape-font-specification:Times-Roman">text and some nonsen</tspan></text>
</g><g
         transform="matrix(0.24,0,0,0.24,197.578,667.34)"
         id="g46"><text
           transform="scale(1,-1)"
           id="text48"><tspan
             x="0 19.459999 41.650002 58.805 72.695 86.584999 111.585 133.77499 150.92999 173.12 209.23 234.23 256.42001 273.07001 298.07001 320.26001 339.72 353.60999 370.76501 395.76501 417.95499 434.63 459.63 484.63 501.28 526.28003 548.46997 570.59003 587.745 623.85498 637.745 651.63501 668.31 682.20001"
             y="0"
             id="tspan50"
             style="font-size:50px;font-variant:normal;font-weight:normal;writing-mode:lr-tb;fill:#000000;fill-opacity:1;fill-rule:nonzero;stroke:none;font-family:Times New Roman;-inkscape-font-specification:Times-Roman">se like “Huardest gefburn”? Kjift </tspan></text>
</g><g
         transform="matrix(0.24,0,0,0.24,365.4276,667.34)"
         id="g52"><text
           transform="scale(1,-1)"
           id="text54"><tspan
             x="0"
             y="0"
             id="tspan56"
             style="font-size:50px;font-variant:normal;font-weight:normal;writing-mode:lr-tb;fill:#000000;fill-opacity:1;fill-rule:nonzero;stroke:none;font-family:Times New Roman;-inkscape-font-specification:Times-Roman">–</tspan></text>
</g><g
         transform="matrix(0.24,0,0,0.24,375.5743,667.34)"
         id="g60"><text
           transform="scale(1,-1)"
           id="text62"><tspan
             x="0 25 50 63.889999 81.044998 103.235 117.125 134.28 156.47 170.36 184.25 200.89999 218.05499 254.19 271.345 296.345 310.23499 324.125 349.125 374.125 391.28 405.17001 427.35999 452.35999 466.25"
             y="0"
             id="tspan64"
             style="font-size:50px;font-variant:normal;font-weight:normal;writing-mode:lr-tb;fill:#000000;fill-opacity:1;fill-rule:nonzero;stroke:none;font-family:Times New Roman;-inkscape-font-specification:Times-Roman">not at all! A blind text </tspan></text>
</g><g
         transform="matrix(0.24,0,0,0.24,90.57996,653.42)"
         id="g66"><text
           transform="scale(1,-1)"
           id="text68"><tspan
             x="0 13.89 27.780001 52.779999 74.970001 89.709999 103.6 128.60001 142.49001 161.95 176.69 201.69 215.58 240.58 262.76999 282.23001 296.97 321.97 346.97 371.97 386.70999 400.60001 425.60001 442.27499 467.27499 483.92499 522.815 545.005 558.89502 572.78497 597.78497 622.78497 637.52502 659.71503 684.71503 709.71503 734.71503 748.60498 763.34497 777.23499 802.23499 824.42499 839.16498 858.625 880.815 894.70502 916.89502 939.08502 952.97498 975.16498 1000.165 1014.905 1031.58 1056.58 1081.58 1095.47 1107.97 1122.71 1147.71 1172.71 1208.8199 1223.5601 1237.45 1262.45 1284.64 1299.38 1313.27 1335.46 1349.35 1363.24 1385.4301 1402.08 1421.54 1436.28 1458.47 1475.12 1497.3101 1512.05 1548.16 1564.8101 1578.7 1592.59 1606.48 1628.67 1653.67"
             y="0"
             id="tspan70"
             style="font-size:50px;font-variant:normal;font-weight:normal;writing-mode:lr-tb;fill:#000000;fill-opacity:1;fill-rule:nonzero;stroke:none;font-family:Times New Roman;-inkscape-font-specification:Times-Roman">like this gives you information about the selected font, how the letters are written </tspan></text>
</g><g
         transform="matrix(0.24,0,0,0.24,90.57996,639.5)"
         id="g72"><text
           transform="scale(1,-1)"
           id="text74"><tspan
             x="0 22.190001 47.189999 72.190002 88.055 110.245 135.245 151.11 165 203.89 228.89 245.53999 267.73001 287.19 306.64999 320.54001 345.54001 370.54001 386.405 411.405 428.07999 443.94501 457.83499 482.83499 505.02499 520.89001 534.78003 559.78003 584.78003 609.78003 622.28003 638.14502 668.71002 693.71002 707.59998 727.06 742.92499 756.815 779.005 804.005 817.89502 833.76001 853.21997 878.21997 903.21997 928.21997 942.10999 967.10999 982.97498 1005.165 1030.165 1055.165 1069.0551 1091.245 1105.135 1130.135 1146 1168.1899 1182.08 1195.97 1211.835 1225.725 1247.915 1261.8051 1275.6949 1297.885 1314.535 1333.995 1349.86 1374.86 1391.535 1407.4 1421.29 1446.29 1468.48 1484.345 1506.535 1520.425 1545.425 1570.425 1592.615 1617.615 1639.8051 1653.6949"
             y="0"
             id="tspan76"
             style="font-size:50px;font-variant:normal;font-weight:normal;writing-mode:lr-tb;fill:#000000;fill-opacity:1;fill-rule:nonzero;stroke:none;font-family:Times New Roman;-inkscape-font-specification:Times-Roman">and an impression of the look. This text should contain all letters of the alphabet </tspan></text>
</g><g
         transform="matrix(0.24,0,0,0.24,90.57996,625.82)"
         id="g78"><text
           transform="scale(1,-1)"
           id="text80"><tspan
             x="0 22.190001 47.189999 72.190002 88.855003 102.745 116.635 133.3 152.75999 177.75999 202.75999 227.75999 241.64999 266.64999 283.315 308.315 330.505 347.17001 383.28 399.92999 413.82001 427.70999 441.60001 463.79001 488.79001 505.45499"
             y="0"
             id="tspan82"
             style="font-size:50px;font-variant:normal;font-weight:normal;writing-mode:lr-tb;fill:#000000;fill-opacity:1;fill-rule:nonzero;stroke:none;font-family:Times New Roman;-inkscape-font-specification:Times-Roman">and it should be written i</tspan></text>
</g><g
         transform="matrix(0.24,0,0,0.24,215.2272,625.82)"
         id="g84"><text
           transform="scale(1,-1)"
           id="text86"><tspan
             x="0 25 41.665001 66.665001 83.339996 100.005 113.895 138.895 161.08501 177.75 202.75 219.39999 233.28999 258.29001 272.17999 297.17999 319.37 333.26001 349.92499 363.815 386.005 411.005 436.005 461.005 483.19501 508.19501 530.38501 542.88501 559.54999 590.11499 615.11499 637.30499 653.95502 676.14502 692.81 706.70001 726.15997 742.82501 767.82501 792.82501 809.48999 834.48999 856.67999 878.87 903.87 920.53497 937.21002 962.21002 978.85999 995.52502 1014.985 1039.985 1062.175 1084.365 1098.255 1120.4449 1134.335"
             y="0"
             id="tspan88"
             style="font-size:50px;font-variant:normal;font-weight:normal;writing-mode:lr-tb;fill:#000000;fill-opacity:1;fill-rule:nonzero;stroke:none;font-family:Times New Roman;-inkscape-font-specification:Times-Roman">n of the original language. There is no need for special </tspan></text>
</g><g
         transform="matrix(0.24,0,0,0.24,90.57996,611.9)"
         id="g90"><text
           transform="scale(1,-1)"
           id="text92"><tspan
             x="0 22.190001 47.189999 72.190002 86.080002 108.27 133.27 147.16 159.66 172.16 197.16 222.16 236.05 248.55 262.44 287.44 309.63 322.13 336.01999 358.20999 383.20999 408.20999 422.10001 447.10001 459.60001 484.60001 501.27499 513.77502 549.88501 574.88501 591.53497 616.53497 635.995 648.495 667.95502 692.95502 717.95502 742.95502 756.84497 781.84497 794.34497 833.23499 855.42499 869.315 891.505 916.505 929.005 942.89502 967.89502 990.08502 1002.585 1016.475 1038.665 1063.665 1088.665 1113.665 1135.855 1160.855 1183.045"
             y="0"
             id="tspan94"
             style="font-size:50px;font-variant:normal;font-weight:normal;writing-mode:lr-tb;fill:#000000;fill-opacity:1;fill-rule:nonzero;stroke:none;font-family:Times New Roman;-inkscape-font-specification:Times-Roman">content, but the length of words should match the language.</tspan></text>
</g></g><g
       transform="matrix(0.24,0,0,0.24,377.5194,611.9)"
       id="g96" /></g></svg>