<?xml version="1.0" encoding="UTF-8" standalone="no"?>
<!-- Created with Inkscape (http://www.inkscape.org/) -->

<svg
   xmlns:dc="http://purl.org/dc/elements/1.1/"
   xmlns:cc="http://creativecommons.org/ns#"
   xmlns:rdf="http://www.w3.org/1999/02/22-rdf-syntax-ns#"
   xmlns:svg="http://www.w3.org/2000/svg"
   xmlns="http://www.w3.org/2000/svg"
   version="1.1"
   width="499.53314"
   height="151.72987"
   id="svg2"
   xml:space="preserve"><metadata
     id="metadata8"><rdf:RDF><cc:Work
         rdf:about=""><dc:format>image/svg+xml</dc:format><dc:type
           rdf:resource="http://purl.org/dc/dcmitype/StillImage" /><dc:title></dc:title></cc:Work></rdf:RDF></metadata><defs
     id="defs6"><clipPath
       id="clipPath18"><path
         d="M 0,0 595,0 595,841 0,841 0,0 z"
         id="path20" /></clipPath></defs><g
     transform="matrix(1.25,0,0,-1.25,-133.10837,897.87537)"
     id="g10"><g
       id="g12" /><g
       id="g14"><g
         id="g3081"><text
           x="128.41299"
           y="-704.13599"
           transform="scale(1,-1)"
           id="text22"><tspan
             x="128.41299 137.04465 142.35277 145.67632 148.99985 154.97745 162.59291 168.57051 173.87863 177.85971 187.45973 190.78328 199.72577 204.37634 210.35394 219.65509 229.26706 232.59061 237.71939 243.69699 251.31245 259.94412 263.26767 266.59122 272.56882 278.54642 284.52402 292.13947 301.75143 311.05258 316.36069 321.66882 327.64642 330.96997 336.94757 342.92514 353.54138 360.84601 366.82361 370.14716 379.08963 382.41318 387.54196 393.51956 401.13501 405.78558 411.76318 417.74078 423.71838 427.04193 437.32339 441.97397 447.95157 453.63031 466.55386 475.18552 481.16312 486.47122 494.0867"
             y="-704.13599"
             id="tspan24"
             style="font-size:11.9552002px;font-variant:normal;writing-mode:lr-tb;fill:#000000;fill-opacity:1;fill-rule:nonzero;stroke:none;font-family:Nimbus Roman No9 L;-inkscape-font-specification:NimbusRomNo9L-Regu">Hello,hereissometextwithoutameaning.Thistextshouldshowwhata</tspan></text>
<text
           x="110.854"
           y="-689.69098"
           transform="scale(1,-1)"
           id="text26"><tspan
             x="110.854 116.8316 120.81268 124.13623 130.11383 133.43738 138.74548 149.30193 152.62547 157.75424 163.73184 171.63423 180.26588 183.58943 186.91298 194.81537 198.13892 204.11652 210.09412 220.65054 223.97411 227.29765 233.1557 243.04265 248.35075 256.25314 259.57669 265.55429 268.87784 278.09528 284.07288 287.39642 292.70453 298.01266 303.32077 314.7858 318.76688 327.32681 333.30441 339.28201 349.83844 353.81952 359.12762 364.43573 374.99219 378.31573 384.29333 387.61688 396.84631 400.16983 405.29861 411.27621 414.59976 422.56192 428.53952 434.51712 445.07358 453.70523 457.02878 460.35233 468.2547 474.2323 479.54041 487.44281 493.42041"
             y="-689.69098"
             id="tspan28"
             style="font-size:11.9552002px;font-variant:normal;writing-mode:lr-tb;fill:#000000;fill-opacity:1;fill-rule:nonzero;stroke:none;font-family:Nimbus Roman No9 L;-inkscape-font-specification:NimbusRomNo9L-Regu">printedtextwilllooklikeatthisplace.Ifyoureadthistext,youwillgetno</tspan></text>
<text
           x="110.854"
           y="-675.245"
           transform="scale(1,-1)"
           id="text30"><tspan
             x="110.854 114.17754 120.15514 124.13623 130.11383 134.09491 143.39606 148.70416 152.02771 155.35126 161.32886 167.30646 175.44795 183.42206 188.73018 194.03828 197.36183 200.68538 206.66298 217.12378 221.10484 229.23439 232.54597 238.52357 243.8317 247.81277 256.59985 262.57745 272.02203 275.34558 281.32318 285.30426 291.28186 295.26297 304.56409 309.87222 313.19577 316.51929 322.49689 328.47449 338.9353 342.91638 351.04593 354.36948 360.34708 365.65518 369.63626 378.41138 387.18649 393.16409 396.48764 400.16983 404.15094 409.45905 413.44012 418.74823 424.72583 430.03394 438.82101 444.79861 450.10672 453.43027 462.06192 467.37003 472.67813 482.12274 485.44629 491.42389 494.74744"
             y="-675.245"
             id="tspan32"
             style="font-size:11.9552002px;font-variant:normal;writing-mode:lr-tb;fill:#000000;fill-opacity:1;fill-rule:nonzero;stroke:none;font-family:Nimbus Roman No9 L;-inkscape-font-specification:NimbusRomNo9L-Regu">information.Really?Istherenoinformation?Isthereadifferencebetweenthis</tspan></text>
<text
           x="110.854"
           y="-660.79901"
           transform="scale(1,-1)"
           id="text34"><tspan
             x="110.854 114.17754 119.30633 125.28393 132.03862 137.34673 143.32433 152.73306 157.38364 163.36124 172.66238 181.40164 187.37924 193.35684 199.33444 203.985 209.29312 215.27072 219.9213 228.66054 231.98409 235.30763 241.16568 249.90494 255.21304 263.8447 269.8223 275.1304 279.11148 285.08908 290.39719 295.04776 301.80246 307.78006 313.08817 317.06924 322.80774 328.78534 332.76642 338.74402 344.05212 354.39337 363.02502 366.34857 369.67212 373.6532 380.41986 389.82858 395.80618 401.78378 408.53848 413.84659 420.60129 425.90939 429.23294 432.55649 441.57071 453.63348 459.61108 462.93463 466.25818 472.23578 481.64453 484.96808 490.09686 496.07446"
             y="-660.79901"
             id="tspan36"
             style="font-size:11.9552002px;font-variant:normal;writing-mode:lr-tb;fill:#000000;fill-opacity:1;fill-rule:nonzero;stroke:none;font-family:Nimbus Roman No9 L;-inkscape-font-specification:NimbusRomNo9L-Regu">textandsomenonsenselike“Huardestgefburn”?Kjift–notatall!Ablindtext</tspan></text>
<text
           x="110.854"
           y="-646.35303"
           transform="scale(1,-1)"
           id="text38"><tspan
             x="110.854 114.17754 117.50109 123.35914 131.72778 135.05133 141.02893 144.35246 152.06357 158.04117 161.06584 166.86411 172.17223 179.88333 185.86093 191.83853 200.87666 204.2002 210.1778 214.15889 220.13649 224.11757 233.41872 238.72682 242.05037 245.37392 251.35152 260.38965 265.69775 271.67535 277.65295 283.63055 290.01462 293.33817 299.31577 307.68442 312.33499 317.6431 320.96664 326.27475 331.58286 334.9064 340.21451 349.25262 353.23373 359.21133 365.18893 368.51248 374.57376 380.55136 386.23007 397.92227 401.24582 407.22342 415.59204 418.91559 424.22369 427.54724 430.87079 436.17889 440.15997 447.87109 453.1792 457.16028 465.52893 474.16058 478.14166 481.46521 484.78876 488.1123 493.42041"
             y="-646.35303"
             id="tspan40"
             style="font-size:11.9552002px;font-variant:normal;writing-mode:lr-tb;fill:#000000;fill-opacity:1;fill-rule:nonzero;stroke:none;font-family:Nimbus Roman No9 L;-inkscape-font-specification:NimbusRomNo9L-Regu">likethisgivesyouinformationabouttheselectedfont,howthelettersarewritten</tspan></text>
<text
           x="110.854"
           y="-631.90698"
           transform="scale(1,-1)"
           id="text42"><tspan
             x="110.854 116.16211 122.13971 131.34521 136.65332 145.85883 149.18237 158.48352 164.46112 168.4422 173.75031 178.40088 183.05145 186.375 192.3526 201.55811 207.53571 214.74469 218.06824 224.04584 232.58183 235.9054 241.883 247.8606 253.8382 261.25043 268.55505 274.53265 277.85617 285.73465 289.04626 294.17502 300.15262 306.70407 311.35464 317.33224 323.30984 329.28745 332.61099 341.8165 347.1246 353.1022 359.0798 362.40335 367.71149 371.03503 380.24054 385.54865 388.87219 395.42361 398.74716 404.0553 407.37881 410.70236 416.0105 419.99158 427.87006 433.84766 441.05664 444.38019 450.35779 458.8938 464.2019 467.52545 473.50305 479.48065 484.78876 490.76636 496.07446"
             y="-631.90698"
             id="tspan44"
             style="font-size:11.9552002px;font-variant:normal;writing-mode:lr-tb;fill:#000000;fill-opacity:1;fill-rule:nonzero;stroke:none;font-family:Nimbus Roman No9 L;-inkscape-font-specification:NimbusRomNo9L-Regu">andanimpressionofthelook.Thistextshouldcontainalllettersofthealphabet</tspan></text>
<text
           x="110.854"
           y="-617.461"
           transform="scale(1,-1)"
           id="text46"><tspan
             x="110.854 116.16211 122.13971 131.5365 134.86005 141.60277 146.25334 152.23094 158.20854 164.18614 167.50969 176.90648 182.88408 191.61137 200.24303 204.22411 207.54765 210.8712 214.19475 219.50285 228.89964 232.22319 241.61998 247.59758 254.99785 258.32138 264.29898 273.02628 279.00388 282.98495 286.3085 292.2861 295.60965 301.58725 306.89536 313.63809 316.96164 322.26974 328.24734 334.22495 340.20255 345.51065 351.48825 356.79636 364.78244 372.08707 378.06467 383.3728 387.35388 396.08118 399.40472 407.47446 413.45206 422.84885 428.82645 434.13455 439.44269 448.83948 452.82056 458.79816 466.19843 470.849 476.8266 482.1347 487.44281 490.76636 496.07446"
             y="-617.461"
             id="tspan48"
             style="font-size:11.9552002px;font-variant:normal;writing-mode:lr-tb;fill:#000000;fill-opacity:1;fill-rule:nonzero;stroke:none;font-family:Nimbus Roman No9 L;-inkscape-font-specification:NimbusRomNo9L-Regu">anditshouldbewritteninoftheoriginallanguage.Thereisnoneedforspecial</tspan></text>
<text
           x="110.854"
           y="-603.01599"
           transform="scale(1,-1)"
           id="text50"><tspan
             x="110.854 116.16211 122.13971 128.11731 131.44086 136.74896 142.72656 146.05011 152.02771 157.7662 163.7438 170.05615 173.3797 179.3573 187.65421 190.97775 196.28586 202.26346 208.24106 211.56461 220.53101 226.50861 233.47849 241.99059 247.96819 251.94928 257.92688 265.56625 270.21683 276.19443 282.172 288.1496 291.47314 300.43954 309.74069 315.0488 318.37234 323.68048 332.64688 335.9704 341.948 350.24493 353.56848 358.87659 364.85419 370.83179 376.80939 382.11749 388.09509 393.4032"
             y="-603.01599"
             id="tspan52"
             style="font-size:11.9552002px;font-variant:normal;writing-mode:lr-tb;fill:#000000;fill-opacity:1;fill-rule:nonzero;stroke:none;font-family:Nimbus Roman No9 L;-inkscape-font-specification:NimbusRomNo9L-Regu">content,butthelengthofwordsshouldmatchthelanguage.</tspan></text>
</g><text
         x="302.13699"
         y="-139.75301"
         transform="scale(1,-1)"
         id="text54"><tspan
           x="302.13699"
           y="-139.75301"
           id="tspan56"
           style="font-size:11.9552002px;font-variant:normal;writing-mode:lr-tb;fill:#000000;fill-opacity:1;fill-rule:nonzero;stroke:none;font-family:Nimbus Roman No9 L;-inkscape-font-specification:NimbusRomNo9L-Regu">1</tspan></text>
</g></g></svg>