<?xml version="1.0" encoding="UTF-8" standalone="no"?>
<!-- Created with Inkscape (http://www.inkscape.org/) -->

<svg
   xmlns:dc="http://purl.org/dc/elements/1.1/"
   xmlns:cc="http://creativecommons.org/ns#"
   xmlns:rdf="http://www.w3.org/1999/02/22-rdf-syntax-ns#"
   xmlns:svg="http://www.w3.org/2000/svg"
   xmlns="http://www.w3.org/2000/svg"
   version="1.1"
   width="64.019997"
   height="64.013"
   viewBox="0 0 64.02 64.013"
   id="Layer_1"
   xml:space="preserve"><metadata
     id="metadata72"><rdf:RDF><cc:Work
         rdf:about=""><dc:format>image/svg+xml</dc:format><dc:type
           rdf:resource="http://purl.org/dc/dcmitype/StillImage" /><dc:title></dc:title></cc:Work></rdf:RDF></metadata><defs
     id="defs70" /><g
     id="Legs"><g
       id="g4"><path
         d="m 38,36.013 -6,6 -4,4 v 6 l -6,10 4,2 14,-14 -2,-14 z m -10,-10 -14,-2 -14,14 2,4 10,-6 h 6 l 4,-4 6,-6 z"
         id="path6"
         style="fill:#cccccc;fill-rule:evenodd" /></g></g><g
     id="Flames"><g
       id="g9"><path
         d="m 10,44.013 c -3.939,5.748 -9.974,12.835 -10,16 -0.021,2.403 1.576,4.021 4,4 3.217,-0.027 10.011,-6.031 16,-10 l -10,-10 z"
         id="path11"
         style="fill:#ffcc66" /></g></g><g
     id="Flames_1_"><g
       id="g14"><path
         d="m 16,42.013 c -3.939,5.748 -12,12.835 -12,16 0,2.091 0.201,2 2,2 3.217,0 10.011,-8.031 16,-12 l -6,-6 z"
         id="path16"
         style="fill:#ed7161" /></g></g><g
     id="Body_2_"><g
       id="g19"><path
         d="M 60,0.013 C 53.714,0.402 42.862,1.15 30,14.013 20.539,23.474 12.239,37.231 8.348,46.36 l 9.367,9.367 C 26.793,51.874 40.459,43.553 50,34.013 c 12.779,-12.779 13.507,-23.669 14,-30 0.22,-2.826 -1.386,-4.162 -4,-4 z"
         id="path21"
         style="fill:#387aa7" /></g></g><g
     id="Body_3_"
     style="fill:#48a0dc;fill-opacity:1"><g
       id="g24"
       style="fill:#48a0dc;fill-opacity:1"><path
         d="M 60,0.013 C 53.714,0.402 42.862,1.15 30,14.013 22.276,21.736 15.336,32.32 10.922,40.918 L 23.157,53.153 C 31.703,48.751 42.222,41.791 50,34.013 c 12.779,-12.779 13.507,-23.669 14,-30 0.22,-2.826 -1.386,-4.162 -4,-4 z"
         id="path26"
         style="fill:#48a0dc;fill-opacity:1" /></g></g><g
     id="Glass"><g
       id="g29"><circle
         cx="48"
         cy="16.013"
         r="8"
         id="circle31"
         style="fill:#4d4d4d" /></g></g><g
     id="Glass_1_"><g
       id="g34"><circle
         cx="48"
         cy="16.013"
         r="4"
         id="circle36"
         style="fill:#ffffff" /></g></g><g
     id="g38" /><g
     id="g40" /><g
     id="g42" /><g
     id="g44" /><g
     id="g46" /><g
     id="g48" /><g
     id="g50" /><g
     id="g52" /><g
     id="g54" /><g
     id="g56" /><g
     id="g58" /><g
     id="g60" /><g
     id="g62" /><g
     id="g64" /><g
     id="g66" /><g
     id="g3848"><path
       d="m 47.015791,58.021619 c 0,0.222575 0,0.445149 0,0.667724 0.270224,-0.02468 0.693858,0.103825 0.780105,-0.25505 0.08787,-0.511141 -0.466703,-0.400249 -0.780105,-0.412674 z m 0,-0.749512 c 0.03817,0.166552 -0.07956,0.489015 0.06486,0.549316 0.401236,0.140912 1.007456,-0.342641 0.384659,-0.545043 -0.149636,-0.0084 -0.29971,-0.0025 -0.449523,-0.0043 z M 46.769209,57.06947 c 0.37862,0.03253 0.826115,-0.104007 1.13121,0.181962 0.328275,0.258922 -0.193046,0.681851 -0.135956,0.682754 0.62045,0.260292 0.156644,1.145198 -0.438254,0.957794 -0.172686,-0.02379 -0.439231,0.04628 -0.557,-0.03243 0,-0.596693 0,-1.193385 0,-1.790078 z m 2.27295,1.949463 c 0.03644,0.311132 -0.683165,0.622599 -0.60669,0.205078 0.274319,0.07531 0.521431,-0.27438 0.368034,-0.503987 -0.163775,-0.39841 -0.32755,-0.796821 -0.491325,-1.195232 0.255928,-0.08514 0.302981,0.138113 0.370402,0.33129 0.09829,0.246016 0.196587,0.492031 0.294881,0.738046 0.142416,-0.356445 0.284831,-0.71289 0.427246,-1.069336 0.324138,-0.08507 0.192329,0.137998 0.104983,0.331014 -0.155844,0.387709 -0.311688,0.775418 -0.467531,1.163127 z m 2.808838,-1.889649 c 0.112834,0.541435 -0.704109,-0.221145 -0.898133,0.280153 -0.139026,0.615497 0.854599,0.265176 0.975036,0.780029 0.235609,0.704599 -0.686832,0.877943 -1.165237,0.648879 -0.333794,-0.471089 0.406648,-4.33e-4 0.687027,-0.131912 0.567259,-0.216389 0.0266,-0.718042 -0.377731,-0.683212 -0.828123,-0.220455 -0.162382,-1.292385 0.506821,-0.963517 0.09237,0.01611 0.183297,0.03995 0.272217,0.06958 z m 0.618896,1.080323 c -0.110991,0.766748 1.005423,0.582739 0.758972,-0.117187 -0.03107,-0.628884 -0.85401,-0.473766 -0.758972,0.117187 z m 0.765381,0.477295 c -0.397214,0.609547 -1.1858,-0.05398 -0.987625,-0.630645 -0.03538,-0.62578 0.841957,-0.628086 0.987625,-0.388809 -0.06255,-0.262891 0.36082,-0.158148 0.22461,0.08437 0,0.553394 0,1.106788 0,1.660182 -0.29812,0.09352 -0.219897,-0.1893 -0.22461,-0.389187 0,-0.11197 0,-0.223941 0,-0.335911 z m 0.664063,-0.334473 c 0,-0.275879 0,-0.551758 0,-0.827637 0.29812,-0.09352 0.219897,0.1893 0.22461,0.389187 0.03069,0.275575 -0.111517,0.697317 0.23178,0.812062 0.452215,0.08155 0.495689,-0.428093 0.464021,-0.750424 0.04006,-0.164272 -0.116213,-0.524869 0.162161,-0.450825 0.139487,0.06511 0.02536,0.383835 0.06245,0.551348 0,0.271947 0,0.543893 0,0.81584 -0.357585,0.12421 -0.111437,-0.431445 -0.415039,-0.02441 -0.376206,0.200812 -0.782078,-0.09048 -0.729981,-0.515137 z m 1.610108,-0.827637 c 0.29812,-0.09352 0.219897,0.1893 0.22461,0.389187 0,0.326 0,0.652001 0,0.978001 -0.29812,0.09352 -0.219898,-0.1893 -0.22461,-0.389186 0,-0.326001 0,-0.652001 0,-0.978002 z m 0,-0.532226 c 0.246546,-0.140374 0.32784,0.288848 0.127313,0.284424 -0.213001,0.05883 -0.09899,-0.159403 -0.127313,-0.284424 z m 1.593018,0.739746 c 0,-0.246582 0,-0.493164 0,-0.739746 0.29812,-0.09352 0.219897,0.1893 0.224609,0.389186 0,0.503409 0,1.006819 0,1.510228 -0.353582,0.127095 -0.113801,-0.423578 -0.404052,-0.02319 -0.60817,0.297924 -0.999802,-0.528065 -0.757314,-1.013374 0.122541,-0.407574 0.724635,-0.506369 0.936757,-0.123101 z m -0.765381,0.477295 c -0.110992,0.766748 1.005422,0.582739 0.758972,-0.117187 -0.03107,-0.628884 -0.85401,-0.473766 -0.758972,0.117187 z m 1.484375,0.372314 c 0.259321,-0.104566 0.326227,0.163127 0.225136,0.310059 -0.28289,0.06654 -0.225289,-0.09968 -0.225136,-0.310059 z m 0.764161,-1.057129 c 0.29812,-0.09352 0.219897,0.1893 0.224609,0.389187 0,0.326 0,0.652001 0,0.978001 -0.298119,0.09352 -0.219897,-0.1893 -0.224609,-0.389186 0,-0.326001 0,-0.652001 0,-0.978002 z m 0,-0.532226 c 0.246546,-0.140374 0.32784,0.288848 0.127313,0.284424 -0.213001,0.05883 -0.09899,-0.159403 -0.127313,-0.284424 z m 1.829834,1.074219 c 0,0.275065 0,0.55013 0,0.825195 -0.298119,0.09352 -0.219897,-0.1893 -0.224609,-0.389186 -0.03056,-0.274849 0.111249,-0.695614 -0.231782,-0.80962 -0.452583,-0.08178 -0.493934,0.4285 -0.462798,0.750423 -0.0399,0.163612 0.116068,0.523098 -0.162161,0.448383 -0.141766,-0.06324 -0.02618,-0.383832 -0.06367,-0.551347 0,-0.271947 0,-0.543894 0,-0.815841 0.358988,-0.12601 0.112384,0.433319 0.41504,0.02808 0.376662,-0.203048 0.782962,0.08793 0.72998,0.513916 z m 0.441895,-1.074219 c 0.298399,-0.09339 0.221767,0.188243 0.22583,0.389186 0,0.244213 0,0.488427 0,0.73264 0.237067,-0.188932 0.451994,-0.436547 0.702598,-0.5896 0.355836,-0.0575 0.172181,0.08895 -0.0131,0.236007 -0.152521,0.134547 -0.305042,0.269095 -0.457564,0.403642 0.251872,0.242513 0.503744,0.485026 0.755616,0.727539 -0.211327,0.04066 -0.37943,-0.02601 -0.503394,-0.202289 -0.161385,-0.155145 -0.32277,-0.31029 -0.484155,-0.465436 0,0.222575 0,0.44515 0,0.667725 -0.2984,0.09339 -0.221768,-0.188243 -0.22583,-0.389186 0,-0.50341 0,-1.006819 0,-1.510228 z m -12.723392,3.342285 c 0.112258,0.549931 -0.408508,-0.172459 -0.712281,0.04128 -0.596239,0.113431 -0.654063,1.022659 -0.239257,1.366501 0.279442,0.322507 0.87225,-0.1271 0.951538,-0.0263 -0.02995,0.444178 -0.809658,0.392088 -1.101685,0.193917 -0.640628,-0.441107 -0.433372,-1.723344 0.421143,-1.744766 0.237142,-0.02082 0.483515,0.03286 0.680542,0.169372 z m 1.748047,0 c 0.112258,0.549931 -0.408508,-0.172459 -0.71228,0.04128 -0.59624,0.113431 -0.654064,1.022659 -0.239258,1.366501 0.279442,0.322507 0.87225,-0.1271 0.951538,-0.0263 -0.02995,0.444178 -0.809658,0.392088 -1.101685,0.193917 -0.640627,-0.441107 -0.433371,-1.723344 0.421143,-1.744766 0.237143,-0.02082 0.483516,0.03286 0.680542,0.169372 z m 1.425782,0.811768 c 0,0.222575 0,0.44515 0,0.667725 0.270224,-0.02468 0.693858,0.103825 0.780105,-0.255051 0.08787,-0.511141 -0.466702,-0.400249 -0.780105,-0.412674 z m 0,-0.749512 c 0.03817,0.166553 -0.07956,0.489016 0.06487,0.549317 0.401235,0.140912 1.007455,-0.342642 0.384659,-0.545043 -0.149637,-0.0084 -0.299711,-0.0025 -0.449524,-0.0043 z m -0.246582,-0.202636 c 0.37862,0.03253 0.826115,-0.104007 1.13121,0.181962 0.328275,0.258921 -0.193046,0.68185 -0.135956,0.682754 0.62045,0.260292 0.156644,1.145198 -0.438254,0.957794 -0.172685,-0.02379 -0.439231,0.04628 -0.557,-0.03243 0,-0.596692 0,-1.193385 0,-1.790077 z m 1.326905,0 c 0.231417,-0.06584 0.351458,0.07775 0.446206,0.268905 0.114003,0.133317 0.228247,0.410105 0.342098,0.453655 0.161223,-0.240853 0.322446,-0.481707 0.483669,-0.72256 0.32024,-0.06581 0.246552,0.07772 0.08341,0.26879 -0.147863,0.241395 -0.3456,0.467529 -0.463047,0.718232 0,0.278496 0,0.556992 0,0.835488 -0.290398,0.08888 -0.26282,-0.140218 -0.247803,-0.356755 -0.01881,-0.240309 0.07044,-0.51368 -0.127039,-0.699318 -0.172498,-0.255479 -0.344995,-0.510958 -0.517492,-0.766437 z m 3.343506,0.839843 c 0.70145,0.155251 0.29051,1.173882 -0.336914,1.018067 -0.26812,0.17653 -0.717158,-0.324713 -0.379639,-0.275879 0.506014,0.400664 1.282857,-0.433738 0.51506,-0.626602 -0.233952,0.127749 -0.481445,-0.208995 -0.177811,-0.208359 0.595408,0.149575 0.556331,-0.746855 -0.02231,-0.567015 -0.260827,0.214906 -0.56461,-0.06401 -0.231628,-0.169068 0.534891,-0.325657 1.396747,0.425332 0.708618,0.804748 l -0.07538,0.02411 z m 0.844727,0.672608 c 0.259321,-0.104567 0.326226,0.163127 0.225136,0.310059 -0.28289,0.06653 -0.22529,-0.09968 -0.225136,-0.310059 z m 1.323242,-1.350098 c -0.532463,0.161873 -0.442646,0.992008 -0.232773,1.395188 0.611153,0.392464 0.70551,-0.645392 0.578403,-1.040515 -0.03358,-0.170388 -0.146408,-0.364559 -0.34563,-0.354673 z m 0,-0.195312 c 0.621139,0.006 0.687595,0.797171 0.607051,1.260643 0.0069,0.491756 -0.603693,0.841966 -0.985622,0.49427 -0.349115,-0.421649 -0.336828,-1.118405 -0.04734,-1.568927 0.102441,-0.12618 0.265661,-0.189224 0.425911,-0.185986 z"
       id="text3049-5"
       style="font-size:2.50000048px;font-style:normal;font-weight:normal;line-height:125%;letter-spacing:0px;word-spacing:0px;fill:#666666;fill-opacity:1;stroke:none;font-family:Sans" /><text
       x="46.653542"
       y="58.791595"
       id="text3049"
       xml:space="preserve"
       style="font-size:2.50000024px;font-style:normal;font-weight:normal;line-height:125%;letter-spacing:0px;word-spacing:0px;fill:#48a0dc;fill-opacity:1;stroke:none;font-family:Sans"><tspan
         x="46.653542"
         y="58.791595"
         id="tspan3051">By Squid.ink</tspan><tspan
         x="46.653542"
         y="61.916595"
         id="tspan3053">CC BY 3.0</tspan></text>
</g></svg>